
<svg version="1.0" xmlns="http://www.w3.org/2000/svg"
 width="952.000000pt" height="252.000000pt" viewBox="0 0 952.000000 252.000000"
 preserveAspectRatio="xMidYMid meet">

<g transform="translate(0.000000,252.000000) scale(0.100000,-0.100000)"
fill="#000000" stroke="none">
<path d="M995 1752 c-22 -9 -59 -29 -82 -44 -24 -16 -45 -28 -48 -28 -16 0
-124 -82 -129 -97 -9 -31 -11 -307 -3 -321 7 -11 12 -11 25 0 10 8 51 30 92
51 41 20 104 56 140 79 l65 43 3 168 c3 185 6 178 -63 149z"/>
<path d="M1740 1718 c-41 -22 -97 -52 -125 -66 -79 -40 -76 -31 -73 -219 3
-165 3 -168 25 -171 14 -2 32 6 47 21 14 14 51 38 83 53 65 32 64 32 115 75
35 30 55 74 49 112 -1 9 2 17 7 17 11 0 9 91 -2 109 -4 6 -3 17 3 24 5 7 9 28
7 47 -4 51 -41 50 -136 -2z"/>
<path d="M2976 1527 c-19 -18 -38 -46 -41 -63 -8 -31 -22 -65 -78 -184 -19
-41 -50 -113 -68 -160 -17 -47 -47 -116 -65 -155 -18 -38 -35 -79 -38 -91 -10
-35 14 -53 74 -56 54 -3 55 -2 72 32 48 99 55 115 122 295 30 81 84 187 100
197 13 9 66 -40 66 -61 0 -9 12 -34 25 -56 14 -22 25 -46 25 -53 0 -8 6 -28
14 -45 24 -53 66 -165 66 -174 0 -5 14 -35 31 -66 33 -62 48 -70 120 -65 36 2
45 7 47 24 3 24 -63 231 -82 254 -15 19 -46 87 -46 103 0 7 -12 35 -25 62 -14
28 -25 55 -25 62 0 15 -90 193 -108 216 -12 13 -31 17 -83 17 -63 0 -70 -2
-103 -33z"/>
<path d="M3780 1550 c-64 -13 -127 -48 -151 -82 -19 -26 -25 -48 -28 -111 -3
-70 -1 -82 22 -116 31 -47 117 -93 207 -110 158 -30 222 -115 132 -176 -43
-29 -104 -33 -159 -10 -19 8 -44 15 -55 15 -10 0 -21 7 -24 15 -4 8 -17 15
-31 15 -14 0 -38 9 -53 20 l-28 20 -19 -27 c-26 -39 -44 -83 -38 -93 3 -5 27
-20 53 -35 103 -58 318 -84 413 -49 24 9 49 17 55 18 34 6 116 107 100 123 -2
2 0 17 4 33 11 39 -7 109 -36 141 -13 14 -24 30 -24 37 0 7 -9 12 -20 12 -11
0 -20 5 -20 10 0 6 -7 10 -15 10 -8 0 -15 4 -15 10 0 5 -12 13 -27 16 -103 24
-201 58 -220 76 -30 28 -31 78 -2 104 17 15 36 19 88 18 69 -1 141 -19 141
-35 0 -6 4 -8 9 -5 5 4 11 2 13 -4 1 -5 17 -12 34 -16 25 -5 36 -1 53 17 27
30 36 65 25 97 -9 26 -40 38 -164 62 -54 11 -171 11 -220 0z"/>
<path d="M4505 1553 c-30 -7 -86 -34 -118 -56 -36 -24 -73 -102 -71 -147 2
-50 14 -100 24 -100 5 0 16 -13 25 -28 17 -28 69 -59 93 -54 6 2 12 -2 12 -7
0 -10 95 -41 125 -41 28 0 107 -43 122 -67 10 -15 12 -33 8 -54 -10 -43 -78
-74 -143 -65 -61 8 -133 34 -157 55 -73 67 -125 42 -125 -59 0 -33 3 -39 28
-45 15 -3 34 -12 42 -19 43 -37 322 -75 361 -50 8 5 16 9 19 9 78 13 124 55
157 145 l24 66 -27 60 c-14 32 -32 62 -38 66 -6 4 -7 8 -2 8 5 0 -10 13 -35
29 -27 18 -88 41 -158 60 -131 34 -155 52 -147 111 6 41 37 70 75 70 38 0 145
-29 149 -41 2 -5 8 -7 13 -3 5 3 16 -2 25 -11 24 -23 65 -15 92 19 35 47 28
116 -13 116 -12 0 -51 9 -85 20 -46 15 -88 20 -159 19 -53 -1 -105 -3 -116 -6z"/>
<path d="M5123 1552 c-58 -6 -60 -14 -65 -373 l-5 -326 23 -22 c19 -19 32 -22
85 -19 57 3 63 5 69 28 10 38 3 681 -7 691 -14 14 -64 25 -100 21z"/>
<path d="M5477 1552 c-11 -2 -27 -12 -38 -23 -18 -18 -19 -38 -19 -352 0 -322
1 -333 20 -345 12 -7 76 -15 159 -19 111 -5 158 -2 233 11 51 10 100 22 108
27 8 5 29 16 45 23 57 27 137 134 156 209 6 27 10 89 7 146 -3 94 -5 101 -38
146 -33 45 -75 91 -116 124 -26 22 -215 48 -358 50 -71 1 -132 3 -135 5 -3 1
-14 1 -24 -2z m379 -158 c53 -31 68 -49 95 -108 33 -75 29 -147 -11 -223 -18
-35 -39 -63 -47 -63 -7 0 -13 -4 -13 -8 0 -19 -97 -54 -160 -58 -55 -4 -69 -2
-89 16 -23 20 -24 24 -26 198 -3 238 0 259 34 270 46 16 171 2 217 -24z"/>
<path d="M6313 1550 c-12 -5 -25 -21 -29 -36 -4 -15 -5 -138 -2 -274 l6 -248
38 -51 c21 -28 41 -51 45 -51 3 0 18 -11 33 -24 33 -28 150 -56 234 -56 32 0
91 9 132 21 92 25 127 58 177 167 l36 77 5 218 c5 217 5 218 -18 242 -18 20
-34 25 -70 25 -85 0 -84 3 -90 -257 -5 -220 -6 -229 -30 -270 -14 -24 -29 -43
-33 -43 -5 0 -25 -12 -44 -27 -66 -51 -177 -23 -226 57 -21 33 -22 47 -24 263
-2 267 -5 277 -76 276 -23 0 -52 -4 -64 -9z"/>
<path d="M7160 1553 c-8 -3 -18 -11 -22 -17 -13 -19 -8 -487 5 -523 15 -40 42
-78 89 -125 52 -51 126 -72 258 -73 117 0 191 17 230 53 13 12 27 22 30 22 3
0 14 16 23 35 9 19 20 35 25 35 5 0 14 17 21 38 18 51 28 511 12 541 -10 18
-21 21 -77 21 -60 0 -65 -2 -74 -26 -6 -14 -10 -89 -10 -167 0 -207 -13 -299
-47 -347 -36 -49 -111 -90 -155 -83 -86 13 -138 64 -157 154 -6 27 -11 140
-11 249 0 187 -1 200 -19 210 -21 11 -95 12 -121 3z"/>
<path d="M8190 1551 c-19 -4 -57 -18 -84 -32 -42 -21 -53 -33 -78 -85 -28 -60
-28 -62 -14 -115 8 -30 18 -64 23 -76 9 -24 69 -73 90 -73 7 0 28 -9 48 -20
19 -11 54 -22 78 -25 99 -14 161 -76 138 -138 -14 -36 -45 -49 -117 -50 -57
-1 -89 8 -134 34 -8 5 -21 12 -29 16 -8 3 -23 15 -33 25 -24 24 -80 25 -71 1
5 -12 2 -15 -9 -10 -18 6 -28 -18 -28 -69 0 -29 6 -34 63 -62 118 -58 312 -81
394 -47 19 8 43 15 52 15 21 0 73 53 97 100 23 45 24 134 1 177 -34 63 -84
101 -171 127 -44 14 -98 28 -119 32 -124 22 -121 169 3 158 55 -4 134 -25 142
-38 5 -8 8 -7 8 2 0 7 5 10 10 7 6 -4 8 -10 5 -15 -7 -12 32 -22 65 -17 47 7
79 118 40 137 -73 36 -283 59 -370 41z"/>
<path d="M1434 1071 c5 -7 -4 -11 -26 -11 -21 0 -54 -13 -85 -32 -84 -53 -116
-71 -158 -89 l-40 -17 -3 -156 -3 -156 27 -25 c26 -24 28 -25 53 -8 31 20 91
56 187 111 l71 41 7 62 c3 34 6 108 6 165 0 95 -2 104 -21 115 -15 8 -19 8
-15 0z"/>
<path d="M2147 1027 c-169 -100 -170 -102 -179 -132 -5 -17 -5 -73 -2 -125 4
-52 8 -108 9 -125 1 -19 6 -30 16 -29 44 4 66 11 83 27 18 15 37 22 59 18 4 0
7 3 7 8 0 5 13 11 29 14 16 4 34 12 40 19 42 49 50 64 55 106 11 87 5 252 -10
252 -7 0 -14 4 -16 10 -1 5 -43 -14 -91 -43z"/>
<path d="M3037 1002 c-15 -31 -27 -69 -27 -84 0 -27 2 -28 50 -28 38 0 52 4
59 18 11 21 4 60 -15 82 -7 8 -19 27 -26 42 l-14 27 -27 -57z"/>
</g>
</svg>
